<svg xmlns:xlink="http://www.w3.org/1999/xlink" xmlns="http://www.w3.org/2000/svg" viewBox="0 0 64 64" class="_wt-icon-big_1z0x29w_1 _dark_1z0x29w_12 compose-multiplatform-platforms__platform-card-icon" width="32"  height="32" ><path fill-rule="evenodd" d="M49.5 44h-35c-2.485 0-4.5-2.015-4.5-4.5v-27c0-2.485 2.015-4.5 4.5-4.5h35c2.485 0 4.5 2.015 4.5 4.5v27c0 2.485-2.015 4.5-4.5 4.5Zm0-32h-35c-.275 0-.5.225-.5.5v27c0 .275.225.5.5.5h35c.275 0 .5-.225.5-.5v-27c0-.275-.225-.5-.5-.5Z" clip-rule="evenodd" fill="#FFFFFF"></path><path d="M4 50h56v4H4v-4Z" fill="#FFFFFF"></path></svg>