<svg xmlns:xlink="http://www.w3.org/1999/xlink" xmlns="http://www.w3.org/2000/svg" viewBox="0 0 64 64" class="_wt-icon-big_1z0x29w_1 _dark_1z0x29w_12 compose-multiplatform-platforms__platform-card-icon" width="32"  height="32" ><path d="M59.75 32c0-15.235-12.23-27.65499-27.385-27.98499-.08-.005-.16-.01001-.24-.01001.04 0 .08-.005.125-.005-.05 0-.105.005-.155.005-.03 0-.06-.005-.095-.005s-.06.005-.095.005c-.05 0-.105-.005-.155-.005.04 0 .085.005.125.005-.08 0-.16.00501-.24.01001C16.48 4.34501 4.25 16.765 4.25 32s12.23 27.655 27.385 27.985c.08.005.16.01.24.01-.04 0-.08.005-.125.005.05 0 .105-.005.155-.005.03 0 .06.005.095.005s.06-.005.095-.005c.05 0 .105.005.155.005-.04 0-.085-.005-.125-.005.08 0 .16-.005.24-.01C47.52 59.655 59.75 47.235 59.75 32ZM32 8c3.19 0 7.575 8.32 7.97 22H24.035C24.425 16.32 28.81 8 32 8Zm7.97 26c-.395 13.68-4.78 22-7.97 22-3.19 0-7.575-8.32-7.97-22h15.94Zm-.82 20.83c2.93-4.99 4.58-12.92 4.815-20.83H55.66c-.81 9.77-7.495 17.9-16.51 20.83ZM55.66 30H43.965c-.24-7.905-1.885-15.84-4.815-20.82999C48.165 12.1 54.85 20.23 55.66 30ZM24.85 9.17001C21.92 14.16 20.27 22.09 20.035 30H8.33997c.81-9.77 7.49503-17.9 16.51003-20.82999ZM8.33997 34H20.035c.24 7.905 1.885 15.84 4.815 20.83C15.835 51.9 9.14997 43.77 8.33997 34Z" fill="#FFFFFF"></path></svg>