<svg xmlns:xlink="http://www.w3.org/1999/xlink" xmlns="http://www.w3.org/2000/svg" viewBox="0 0 64 64" class="_wt-icon-big_1z0x29w_1 _dark_1z0x29w_12 compose-multiplatform-platforms__platform-card-icon" width="32"  height="32" ><path d="M22.27 36.14c-1.5.49-2.315 2.09-1.835 3.59.4 1.26 1.5999 2.0399 2.8599 1.9749.24-.015.4851-.0599.7301-.1349 1.5-.485 2.3149-2.09 1.8299-3.59-.48-1.5-2.0849-2.325-3.5849-1.84Zm17.7 0c-1.5.49-2.315 2.09-1.835 3.59.4 1.26 1.6 2.0399 2.86 1.9749.24-.015.485-.0599.73-.1349 1.5-.485 2.315-2.09 1.83-3.59-.48-1.5-2.085-2.325-3.585-1.84Z" fill="#FFFFFF"></path><path fill-rule="evenodd" d="m53.79 20.895-3.825 7.65C56.095 33.685 60 41.395 60 50v2H4v-2c0-8.605 3.90497-16.315 10.035-21.455l-3.825-7.65 3.58-1.79 3.53 7.065C21.59 23.53 26.62 22 32 22c5.38 0 10.41 1.53 14.68 4.17l3.53-7.065 3.58 1.79ZM32 26C19.44 26 9.10502 35.7 8.08502 48H55.915C54.895 35.7 44.56 26 32 26Z" clip-rule="evenodd" fill="#FFFFFF"></path></svg>