<svg xmlns:xlink="http://www.w3.org/1999/xlink" xmlns="http://www.w3.org/2000/svg" viewBox="0 0 64 64" class="_wt-icon-big_1z0x29w_1 _dark_1z0x29w_12 compose-multiplatform-platforms__platform-card-icon" width="32"  height="32" ><path d="M54.6754 41.4349c-.365-.15-6.1351-2.655-6.1351-9.36 0-4.84 3.1151-7.61 4.9751-8.825.135-.09.2249-.15.2699-.185l1.5-1.165-1.0899-1.56c-2.865-4.11-7.365-6.3701-12.665-6.3701-2.805 0-5.215.9551-7.155 1.7251-.1.04-.2.08-.295.115.455-3.95 2.73-7.21499 7.045-10.15499l-2.25-3.30506c-5.565 3.785-8.4651 8.29505-8.8401 13.74005-.335-.125-.6899-.27-1.0499-.415-1.72-.695-3.865-1.56-6.305-1.56-7.925 0-15.94505 6.37-15.94505 18.54 0 6.65 2.36499 14.145 6.17995 19.57 2.64 3.705 5.6301 7.9 10.2751 7.9 2.045 0 3.555-.64 4.89-1.205 1.345-.57 2.5049-1.065 4.3349-1.065 1.845 0 2.8951.4599 4.1151.9899 1.295.565 2.7649 1.2051 5.0049 1.2051 4.935 0 7.9051-4.27 10.2951-7.715 2.82-4.11 4.05-8.18 4.135-8.655l.3199-1.715-1.6099-.53Zm-6.1351 8.63c-2.355 3.39-4.37 5.985-7.005 5.985-1.405 0-2.2899-.385-3.4049-.87-1.355-.59-3.0351-1.325-5.7151-1.325-2.645 0-4.4499.765-5.8999 1.38-1.17.495-2.09.885-3.325.885-2.395 0-4.42-2.58-7.01-6.21-3.31-4.7051-5.445-11.48-5.445-17.26 0-9.545 6.01-14.54 11.945-14.54 1.66 0 3.26.645 4.805 1.27 1.455.59 2.8299 1.145 4.2399 1.145 1.305 0 2.61-.515 4.12-1.115 1.705-.675 3.6401-1.4401 5.6801-1.4401 2.39 0 5.5899.5901 8.1449 3.1651-2.39 2.03-5.135 5.54-5.135 10.94 0 6.635 4.155 10.555 7 12.26-.53 1.38-1.5 3.545-2.995 5.73Z" fill="#FFFFFF"></path></svg>