<?xml version="1.0" encoding="utf-8"?>
<!-- Generator: Adobe Illustrator 19.2.0, SVG Export Plug-In . SVG Version: 6.00 Build 0)  -->
<svg version="1.1" id="Layer_1" xmlns="http://www.w3.org/2000/svg" xmlns:xlink="http://www.w3.org/1999/xlink" x="0px" y="0px"
	 viewBox="0 0 707.2 798.5" style="enable-background:new 0 0 707.2 798.5;" xml:space="preserve">
<g>
	<defs>
		<rect id="SVGID_4_" x="0" y="-0.6" width="707.8" height="799.4"/>
	</defs>
	<clipPath id="SVGID_1_">
		<use xlink:href="#SVGID_4_"  style="overflow:visible;"/>
	</clipPath>
	
		<linearGradient id="SVGID_2_" gradientUnits="userSpaceOnUse" x1="-5364.0918" y1="5636.2119" x2="-5464.4453" y2="5736.5649" gradientTransform="matrix(4.489700e-11 1 1 -4.489700e-11 -5208.395 5447.6831)">
		<stop  offset="0.2957" style="stop-color:#3FA3DC"/>
		<stop  offset="0.6936" style="stop-color:#5275B9"/>
		<stop  offset="1" style="stop-color:#5E66AC"/>
	</linearGradient>
	<polygon style="clip-path:url(#SVGID_1_);fill:url(#SVGID_2_);" points="406.9,62.7 469.4,4.1 549.1,4.1 487.1,62.9 	"/>
	
		<linearGradient id="SVGID_3_" gradientUnits="userSpaceOnUse" x1="-5132.4131" y1="5301.7266" x2="-5290.5469" y2="5459.8604" gradientTransform="matrix(4.489700e-11 1 1 -4.489700e-11 -5208.395 5447.6831)">
		<stop  offset="0.2957" style="stop-color:#3FA3DC"/>
		<stop  offset="0.6936" style="stop-color:#5275B9"/>
		<stop  offset="1" style="stop-color:#5E66AC"/>
	</linearGradient>
	<polygon style="clip-path:url(#SVGID_1_);fill:url(#SVGID_3_);" points="73.2,295.1 191.9,177.3 271.6,177.3 152.9,295.1 	"/>
	<polygon style="clip-path:url(#SVGID_1_);fill:#3FA3DC;" points="429.5,316.1 290,177.6 210.3,177.6 350,316.3 	"/>
	<polygon style="clip-path:url(#SVGID_1_);fill:#3FA3DC;" points="149.2,294.9 79.3,225.9 -0.4,225.9 69.7,295.1 	"/>
	<polygon style="clip-path:url(#SVGID_1_);fill:#3FA3DC;" points="563.7,330.2 408.7,177.6 329.9,177.6 484.7,330.2 	"/>
	
		<linearGradient id="SVGID_5_" gradientUnits="userSpaceOnUse" x1="-5250.4995" y1="5557.8931" x2="-5356.728" y2="5664.1221" gradientTransform="matrix(4.489700e-11 1 1 -4.489700e-11 -5208.395 5447.6831)">
		<stop  offset="0.2957" style="stop-color:#3FA3DC"/>
		<stop  offset="0.6936" style="stop-color:#5275B9"/>
		<stop  offset="1" style="stop-color:#5E66AC"/>
	</linearGradient>
	<polygon style="clip-path:url(#SVGID_1_);fill:url(#SVGID_5_);" points="329.9,177.6 396.5,110.6 475.4,110.6 408.7,177.6 	"/>
	<polygon style="clip-path:url(#SVGID_1_);fill:#3FA3DC;" points="570.7,204.9 475.4,110.6 396.5,110.6 491.4,205.2 	"/>
	<polygon style="clip-path:url(#SVGID_1_);fill:#3FA3DC;" points="665.1,113.6 553.8,3.8 474.1,3.8 585.4,113.6 	"/>
	<polygon style="clip-path:url(#SVGID_1_);fill:#3FA3DC;" points="730.7,328 661.2,260 581.5,260 651,328 	"/>
	<polygon style="clip-path:url(#SVGID_1_);fill:#3FA3DC;" points="794.4,537.2 656.1,400.6 576.4,400.6 714.6,537.2 	"/>
	
		<linearGradient id="SVGID_6_" gradientUnits="userSpaceOnUse" x1="-5222.2588" y1="5720.8281" x2="-5354.6123" y2="5853.1816" gradientTransform="matrix(4.489700e-11 1 1 -4.489700e-11 -5208.395 5447.6831)">
		<stop  offset="0.2957" style="stop-color:#3FA3DC"/>
		<stop  offset="0.6936" style="stop-color:#5275B9"/>
		<stop  offset="1" style="stop-color:#5E66AC"/>
	</linearGradient>
	<polygon style="clip-path:url(#SVGID_1_);fill:url(#SVGID_6_);" points="491.9,204.9 585.6,113.6 665.3,113.6 572.1,205.1 	"/>
	<polygon style="clip-path:url(#SVGID_1_);fill:#3FA3DC;" points="70.3,510.2 -41,400.4 -120.8,400.4 -9.4,510.2 	"/>
	
		<linearGradient id="SVGID_7_" gradientUnits="userSpaceOnUse" x1="-4815.7559" y1="5115.2749" x2="-4958.4448" y2="5257.9644" gradientTransform="matrix(4.489700e-11 1 1 -4.489700e-11 -5208.395 5447.6831)">
		<stop  offset="0.2957" style="stop-color:#3FA3DC"/>
		<stop  offset="0.6936" style="stop-color:#5275B9"/>
		<stop  offset="1" style="stop-color:#5E66AC"/>
	</linearGradient>
	<polygon style="clip-path:url(#SVGID_1_);fill:url(#SVGID_7_);" points="-114,611 -9.2,510.1 70.5,510.1 -33.9,611.2 	"/>
	<polygon style="clip-path:url(#SVGID_1_);fill:#3FA3DC;" points="150.2,157.7 -12.9,-3.8 -92.7,-3.8 70.4,157.7 	"/>
	
		<linearGradient id="SVGID_8_" gradientUnits="userSpaceOnUse" x1="-5200.856" y1="5227.7451" x2="-5310.9131" y2="5337.8018" gradientTransform="matrix(4.489700e-11 1 1 -4.489700e-11 -5208.395 5447.6831)">
		<stop  offset="0.2957" style="stop-color:#3FA3DC"/>
		<stop  offset="0.6936" style="stop-color:#5275B9"/>
		<stop  offset="1" style="stop-color:#5E66AC"/>
	</linearGradient>
	<polygon style="clip-path:url(#SVGID_1_);fill:url(#SVGID_8_);" points="-1.6,225.9 70.6,157.7 150.3,157.7 78.2,225.9 	"/>
	
		<linearGradient id="SVGID_9_" gradientUnits="userSpaceOnUse" x1="-5167.3052" y1="5810.354" x2="-5311.7769" y2="5954.8257" gradientTransform="matrix(4.489700e-11 1 1 -4.489700e-11 -5208.395 5447.6831)">
		<stop  offset="0.2957" style="stop-color:#3FA3DC"/>
		<stop  offset="0.6936" style="stop-color:#5275B9"/>
		<stop  offset="1" style="stop-color:#5E66AC"/>
	</linearGradient>
	<polygon style="clip-path:url(#SVGID_1_);fill:url(#SVGID_9_);" points="581.5,259.9 688.6,156.1 766.7,156.1 659.5,263.8 	"/>
	<polygon style="clip-path:url(#SVGID_1_);fill:#3FA3DC;" points="862.8,251.7 766.7,156.1 688.6,156.1 784.2,251.7 	"/>
	<polygon style="clip-path:url(#SVGID_1_);fill:#3FA3DC;" points="596.9,-23.8 735.6,113.7 813.7,113.7 675.6,-23.8 	"/>
	
		<linearGradient id="SVGID_10_" gradientUnits="userSpaceOnUse" x1="-7250.5137" y1="5274.4282" x2="-7448.7822" y2="5472.6968" gradientTransform="matrix(-8.979300e-11 -1 1 -8.979300e-11 -5208.395 -7279.498)">
		<stop  offset="0.2957" style="stop-color:#3FA3DC"/>
		<stop  offset="0.6936" style="stop-color:#5275B9"/>
		<stop  offset="1" style="stop-color:#5E66AC"/>
	</linearGradient>
	<polygon style="clip-path:url(#SVGID_1_);fill:url(#SVGID_10_);" points="45.7,-8.6 206.6,148.9 284.7,148.9 123.7,-8.6 	"/>
	<polygon style="clip-path:url(#SVGID_1_);fill:#3FA3DC;" points="368.4,66.9 288.4,148.9 210.4,148.9 289.8,67.7 	"/>
	
		<linearGradient id="SVGID_11_" gradientUnits="userSpaceOnUse" x1="-7255.3877" y1="5444.5679" x2="-7367.0176" y2="5556.1973" gradientTransform="matrix(-8.979300e-11 -1 1 -8.979300e-11 -5208.395 -7279.498)">
		<stop  offset="0.2957" style="stop-color:#3FA3DC"/>
		<stop  offset="0.6936" style="stop-color:#5275B9"/>
		<stop  offset="1" style="stop-color:#5E66AC"/>
	</linearGradient>
	<polygon style="clip-path:url(#SVGID_1_);fill:url(#SVGID_11_);" points="215.5,-3.5 289.8,67.7 368.4,66.9 293.9,-3.5 	"/>
	<linearGradient id="SVGID_12_" gradientUnits="userSpaceOnUse" x1="56.7253" y1="363.2442" x2="277.8867" y2="363.2442">
		<stop  offset="0.2957" style="stop-color:#3FA3DC"/>
		<stop  offset="0.6936" style="stop-color:#5275B9"/>
		<stop  offset="1" style="stop-color:#5E66AC"/>
	</linearGradient>
	<polygon style="clip-path:url(#SVGID_1_);fill:url(#SVGID_12_);" points="56.7,433.3 199,293.1 277.9,293.1 136.4,433.3 	"/>
	<polygon style="clip-path:url(#SVGID_1_);fill:#3FA3DC;" points="364.5,380.2 276.6,292.6 197.7,292.6 285.7,380.2 	"/>
	<linearGradient id="SVGID_13_" gradientUnits="userSpaceOnUse" x1="284.4111" y1="347.6519" x2="429.4916" y2="347.6519">
		<stop  offset="0.2957" style="stop-color:#3FA3DC"/>
		<stop  offset="0.6936" style="stop-color:#5275B9"/>
		<stop  offset="1" style="stop-color:#5E66AC"/>
	</linearGradient>
	<polygon style="clip-path:url(#SVGID_1_);fill:url(#SVGID_13_);" points="284.4,379.4 349.5,315.9 429.5,316.1 364.1,379.4 	"/>
	
		<linearGradient id="SVGID_14_" gradientUnits="userSpaceOnUse" x1="-4290.7329" y1="593.0565" x2="-3976.9536" y2="593.0565" gradientTransform="matrix(-1 0 0 1 -3471.179 0)">
		<stop  offset="0.2957" style="stop-color:#3FA3DC"/>
		<stop  offset="0.6936" style="stop-color:#5275B9"/>
		<stop  offset="1" style="stop-color:#5E66AC"/>
	</linearGradient>
	<polygon style="clip-path:url(#SVGID_1_);fill:url(#SVGID_14_);" points="819.6,709.2 585.7,477 505.8,477.2 739.8,709.2 	"/>
	
		<linearGradient id="SVGID_15_" gradientUnits="userSpaceOnUse" x1="-4992.9463" y1="-7127.4941" x2="-5199.8271" y2="-6920.6128" gradientTransform="matrix(-8.979300e-11 1 -1 -8.979300e-11 -7012.105 5447.6831)">
		<stop  offset="0.2957" style="stop-color:#3FA3DC"/>
		<stop  offset="0.6936" style="stop-color:#5275B9"/>
		<stop  offset="1" style="stop-color:#5E66AC"/>
	</linearGradient>
	<polygon style="clip-path:url(#SVGID_1_);fill:url(#SVGID_15_);" points="136.3,433.8 -32.7,268.8 -112.4,268.8 56.6,433.8 	"/>
	
		<linearGradient id="SVGID_16_" gradientUnits="userSpaceOnUse" x1="-7582.707" y1="-7726.6855" x2="-7700.4971" y2="-7608.895" gradientTransform="matrix(1.346900e-10 -1 -1 -1.346900e-10 -7012.105 -7279.498)">
		<stop  offset="0.2957" style="stop-color:#3FA3DC"/>
		<stop  offset="0.6936" style="stop-color:#5275B9"/>
		<stop  offset="1" style="stop-color:#5E66AC"/>
	</linearGradient>
	<polygon style="clip-path:url(#SVGID_1_);fill:url(#SVGID_16_);" points="734.9,323.6 654.5,400.6 576.4,400.6 656.9,323.6 	"/>
	<polygon style="clip-path:url(#SVGID_1_);fill:#3FA3DC;" points="345.9,469 429.3,551.8 507.3,551.8 424.5,469 	"/>
	
		<linearGradient id="SVGID_17_" gradientUnits="userSpaceOnUse" x1="-7589.7812" y1="-7555.9043" x2="-7770.0635" y2="-7375.6221" gradientTransform="matrix(1.346900e-10 -1 -1 -1.346900e-10 -7012.105 -7279.498)">
		<stop  offset="0.2957" style="stop-color:#3FA3DC"/>
		<stop  offset="0.6936" style="stop-color:#5275B9"/>
		<stop  offset="1" style="stop-color:#5E66AC"/>
	</linearGradient>
	<polygon style="clip-path:url(#SVGID_1_);fill:url(#SVGID_17_);" points="563.7,330.2 422.2,470.6 343.6,470.6 484.7,330.2 	"/>
	
		<linearGradient id="SVGID_18_" gradientUnits="userSpaceOnUse" x1="-7736.5366" y1="-7578.0688" x2="-7851.2588" y2="-7463.3467" gradientTransform="matrix(1.346900e-10 -1 -1 -1.346900e-10 -7012.105 -7279.498)">
		<stop  offset="0.2957" style="stop-color:#3FA3DC"/>
		<stop  offset="0.6936" style="stop-color:#5275B9"/>
		<stop  offset="1" style="stop-color:#5E66AC"/>
	</linearGradient>
	<polygon style="clip-path:url(#SVGID_1_);fill:url(#SVGID_18_);" points="585.9,477 509.9,551.8 431.3,551.8 506.8,477 	"/>
	
		<linearGradient id="SVGID_19_" gradientUnits="userSpaceOnUse" x1="-4910.5859" y1="766.638" x2="-5031.3711" y2="887.4229" gradientTransform="matrix(0 1 -1 0 1099.6882 5447.6831)">
		<stop  offset="0.2957" style="stop-color:#3FA3DC"/>
		<stop  offset="0.6936" style="stop-color:#5275B9"/>
		<stop  offset="1" style="stop-color:#5E66AC"/>
	</linearGradient>
	<polygon style="clip-path:url(#SVGID_1_);fill:url(#SVGID_19_);" points="354,516.2 271.1,437.2 191.4,437.2 273.8,516.4 	"/>
	
		<linearGradient id="SVGID_20_" gradientUnits="userSpaceOnUse" x1="-4572.5117" y1="320.7344" x2="-4843.2461" y2="591.4689" gradientTransform="matrix(0 1 -1 0 1099.6882 5447.6831)">
		<stop  offset="0.2957" style="stop-color:#3FA3DC"/>
		<stop  offset="0.6936" style="stop-color:#5275B9"/>
		<stop  offset="1" style="stop-color:#5E66AC"/>
	</linearGradient>
	<polygon style="clip-path:url(#SVGID_1_);fill:url(#SVGID_20_);" points="799.1,855 567.8,624.6 488.1,624.6 719.4,855 	"/>
	<polygon style="clip-path:url(#SVGID_1_);fill:#3FA3DC;" points="320.7,763.2 460.2,624.6 539.9,624.6 400.2,763.4 	"/>
	<polygon style="clip-path:url(#SVGID_1_);fill:#3FA3DC;" points="186.4,773 341.4,620.4 420.3,620.4 265.5,773 	"/>
	
		<linearGradient id="SVGID_21_" gradientUnits="userSpaceOnUse" x1="-4807.6982" y1="699.0242" x2="-4913.9272" y2="805.2529" gradientTransform="matrix(0 1 -1 0 1099.6882 5447.6831)">
		<stop  offset="0.2957" style="stop-color:#3FA3DC"/>
		<stop  offset="0.6936" style="stop-color:#5275B9"/>
		<stop  offset="1" style="stop-color:#5E66AC"/>
	</linearGradient>
	<polygon style="clip-path:url(#SVGID_1_);fill:url(#SVGID_21_);" points="420.3,620.4 353.7,553.4 274.8,553.4 341.4,620.4 	"/>
	<polygon style="clip-path:url(#SVGID_1_);fill:#3FA3DC;" points="179.5,647.7 274.8,553.4 353.7,553.4 258.8,648 	"/>
	<polygon style="clip-path:url(#SVGID_1_);fill:#3FA3DC;" points="75.3,546.7 186.7,436.9 266.4,436.9 155,546.7 	"/>
	<polygon style="clip-path:url(#SVGID_1_);fill:#3FA3DC;" points="-17.9,847.6 118.5,712.7 197.4,712.7 61.8,847.6 	"/>
	
		<linearGradient id="SVGID_22_" gradientUnits="userSpaceOnUse" x1="-4779.2598" y1="860.9397" x2="-4921.9487" y2="1003.6289" gradientTransform="matrix(0 1 -1 0 1099.6882 5447.6831)">
		<stop  offset="0.2957" style="stop-color:#3FA3DC"/>
		<stop  offset="0.6936" style="stop-color:#5275B9"/>
		<stop  offset="1" style="stop-color:#5E66AC"/>
	</linearGradient>
	<polygon style="clip-path:url(#SVGID_1_);fill:url(#SVGID_22_);" points="259.7,647.5 154.9,546.6 75.2,546.6 179.5,647.7 	"/>
	
		<linearGradient id="SVGID_23_" gradientUnits="userSpaceOnUse" x1="-4715.2764" y1="921.9973" x2="-4861.2148" y2="1067.9359" gradientTransform="matrix(0 1 -1 0 1099.6882 5447.6831)">
		<stop  offset="0.2957" style="stop-color:#3FA3DC"/>
		<stop  offset="0.6936" style="stop-color:#5275B9"/>
		<stop  offset="1" style="stop-color:#5E66AC"/>
	</linearGradient>
	<polygon style="clip-path:url(#SVGID_1_);fill:url(#SVGID_23_);" points="197.4,712.7 90.3,606 12.2,606 118.5,712.7 	"/>
	<polygon style="clip-path:url(#SVGID_1_);fill:#3FA3DC;" points="-84,701.6 12.2,606 90.3,606 -5.3,701.6 	"/>
	
		<linearGradient id="SVGID_24_" gradientUnits="userSpaceOnUse" x1="-4774.4072" y1="796.3997" x2="-4581.0273" y2="796.3997" gradientTransform="matrix(-1 0 0 1 -4108.7065 0)">
		<stop  offset="0.2957" style="stop-color:#3FA3DC"/>
		<stop  offset="0.6936" style="stop-color:#5275B9"/>
		<stop  offset="1" style="stop-color:#5E66AC"/>
	</linearGradient>
	<polygon style="clip-path:url(#SVGID_1_);fill:url(#SVGID_24_);" points="665.7,852.6 551.2,740.2 472.3,740.2 586,852.6 	"/>
	<polygon style="clip-path:url(#SVGID_1_);fill:#3FA3DC;" points="385.7,827.3 473.6,739.6 552.5,739.6 464.5,827.3 	"/>
	
		<linearGradient id="SVGID_25_" gradientUnits="userSpaceOnUse" x1="-4574.5029" y1="794.6981" x2="-4429.4224" y2="794.6981" gradientTransform="matrix(-1 0 0 1 -4108.7065 0)">
		<stop  offset="0.2957" style="stop-color:#3FA3DC"/>
		<stop  offset="0.6936" style="stop-color:#5275B9"/>
		<stop  offset="1" style="stop-color:#5E66AC"/>
	</linearGradient>
	<polygon style="clip-path:url(#SVGID_1_);fill:url(#SVGID_25_);" points="465.8,826.4 400.7,763 320.7,763.2 386.1,826.4 	"/>
	
		<linearGradient id="SVGID_26_" gradientUnits="userSpaceOnUse" x1="-8032.5825" y1="-2697.0352" x2="-8212.8643" y2="-2516.7532" gradientTransform="matrix(-1.795870e-10 -1 1 -1.795870e-10 2903.3982 -7279.498)">
		<stop  offset="0.2957" style="stop-color:#3FA3DC"/>
		<stop  offset="0.6936" style="stop-color:#5275B9"/>
		<stop  offset="1" style="stop-color:#5E66AC"/>
	</linearGradient>
	<polygon style="clip-path:url(#SVGID_1_);fill:url(#SVGID_26_);" points="186.4,773 328,913.4 406.6,913.4 265.5,773 	"/>
</g>
</svg>
