<svg xmlns="http://www.w3.org/2000/svg" width="800" height="470" viewBox="0 0 800 470" preserveAspectRatio="xMidYMid meet"><defs><clipPath id="animationMask_7I7Jky5jXu"><rect width="800" height="470" x="0" y="0"></rect></clipPath><clipPath id="PkxOqsWczf"><path fill="#ffffff" clip-rule="nonzero" d=" M1.47,66.57 C1.47,66.57 1.47,186.205 1.47,186.205 C1.47,223.36200000000002 0.75,260.31 7.005,297.083 C14.154,339.11100000000005 28.460000000000004,379.601 48.148,417.363 C88.462,494.676 152.02599999999998,557.086 231.575,593.17 C311.127,557.086 374.70399999999995,494.676 415.018,417.363 C434.707,379.601 449.13599999999997,339.11100000000005 456.284,297.083 C462.539,260.31 461.994,223.36200000000002 461.994,186.205 C461.994,186.205 461.994,66.57 461.994,66.57 C461.994,66.57 231.73,0.75 231.73,0.75 C231.73,0.75 1.47,66.57 1.47,66.57"></path></clipPath><clipPath id="XyVSVofXsg"><path fill="#ffffff" clip-rule="nonzero" d=" M1.47,90.57 C1.47,90.57 1.47,210.205 1.47,210.205 C1.47,247.36200000000002 0.75,284.31 7.005,321.083 C14.154,363.11100000000005 28.460000000000004,403.601 48.148,441.363 C88.462,518.676 152.02599999999998,581.086 231.575,617.17 C311.127,581.086 374.70399999999995,518.676 415.018,441.363 C434.707,403.601 449.13599999999997,363.11100000000005 456.284,321.083 C462.539,284.31 461.994,247.36200000000002 461.994,210.205 C461.994,210.205 461.994,90.57 461.994,90.57 C461.994,90.57 231.73,24.75 231.73,24.75 C231.73,24.75 1.47,90.57 1.47,90.57"></path></clipPath><clipPath id="Ar69Cfu4Z4"><path fill="#ffffff" clip-rule="nonzero" d=" M104.568,0.864 C45.75,0.864 -1.932,48.54600000000001 -1.932,107.364 C-1.932,166.18200000000002 45.75,213.864 104.568,213.864 C163.386,213.864 211.068,166.18200000000002 211.068,107.364 C211.068,48.54600000000001 163.386,0.864 104.568,0.864"></path></clipPath></defs><g clip-path="url(#animationMask_7I7Jky5jXu)"><rect width="800" height="470" fill="#ffffff" transform="matrix(1,0,0,1,0,0)" opacity="1"></rect><g opacity="1" style="-webkit-user-select: none;"><g transform="matrix(0.5035000000000001,0,0,0.5035000000000001,291.2378275,405.1085865)" style="-webkit-user-select: none;"><path d=" M522.468,9.781 C522.468,15.183 405.509,19.562 261.233,19.562 C116.95799999999997,19.562 0,15.183 0,9.781 C0,4.3790000000000004 116.95799999999997,0 261.233,0 C405.509,0 522.468,4.3790000000000004 522.468,9.781z" style="fill: rgb(237, 237, 237); fill-opacity: 1;"></path></g><g transform="matrix(0.53,0,0,0.53,277.10074000000003,68.65078000000004)" style="-webkit-user-select: none;"><path d=" M0.9699999999999989,66.07 C0.9699999999999989,66.07 0.9699999999999989,185.70499999999998 0.9699999999999989,185.70499999999998 C0.9699999999999989,222.86199999999997 0.25,259.80999999999995 6.5049999999999955,296.58299999999997 C13.653999999999996,338.611 27.960000000000008,379.101 47.647999999999996,416.863 C87.96199999999999,494.176 151.526,556.586 231.07500000000002,592.67 C310.627,556.586 374.204,494.176 414.51800000000003,416.863 C434.207,379.101 448.63599999999997,338.611 455.784,296.58299999999997 C462.039,259.80999999999995 461.493,222.86199999999997 461.493,185.70499999999998 C461.493,185.70499999999998 461.493,66.07 461.493,66.07 C461.493,66.07 231.23000000000002,0.25 231.23000000000002,0.25 C231.23000000000002,0.25 0.9699999999999989,66.07 0.9699999999999989,66.07z" style="fill: rgb(66, 133, 244); fill-opacity: 1;"></path></g><g clip-path="url(#PkxOqsWczf)" transform="matrix(0.53,0,0,0.53,277.10074000000003,68.65078000000004)" opacity="1" style="-webkit-user-select: none;"><g style="-webkit-user-select: none;"><path d=" M319.741,241.07500000000002 C319.741,241.07500000000002 301.94100000000003,241.07500000000002 301.94100000000003,241.07500000000002 C301.94100000000003,241.07500000000002 159.941,241.07500000000002 159.941,241.07500000000002 C159.941,241.07500000000002 142.227,241.07500000000002 142.227,241.07500000000002 C132.46300000000002,241.07500000000002 123.941,249.42100000000002 123.941,259.18100000000004 C123.941,259.18100000000004 123.941,401.192 123.941,401.192 C123.941,410.956 132.46300000000002,419.07500000000005 142.227,419.07500000000005 C142.227,419.07500000000005 319.741,419.07500000000005 319.741,419.07500000000005 C329.505,419.07500000000005 336.94100000000003,410.956 336.94100000000003,401.192 C336.94100000000003,401.192 336.94100000000003,259.18100000000004 336.94100000000003,259.18100000000004 C336.94100000000003,249.42100000000002 329.505,241.07500000000002 319.741,241.07500000000002z M240.941,337.66400000000004 C240.941,337.66400000000004 240.941,368.07500000000005 240.941,368.07500000000005 C240.941,368.07500000000005 219.941,368.07500000000005 219.941,368.07500000000005 C219.941,368.07500000000005 219.941,337.66400000000004 219.941,337.66400000000004 C208.941,333.244 202.119,322.94800000000004 202.119,310.95000000000005 C202.119,294.922 215.034,281.928 231.062,281.928 C247.091,281.928 259.345,294.922 259.345,310.95000000000005 C259.345,322.94800000000004 252.941,333.244 240.941,337.66400000000004z" style="fill: rgb(255, 255, 255); fill-opacity: 1;"></path><path d=" M259.806,311.19899999999996 C259.806,295.171 246.662,282.17699999999996 230.634,282.17699999999996 C214.606,282.17699999999996 201.694,295.171 201.694,311.19899999999996 C201.694,323.197 208.441,333.493 219.441,337.91299999999995 C219.441,337.91299999999995 219.441,368.32399999999996 219.441,368.32399999999996 C219.441,368.32399999999996 242.441,368.32399999999996 242.441,368.32399999999996 C242.441,368.32399999999996 242.441,337.91299999999995 242.441,337.91299999999995 C250.441,333.493 259.806,323.197 259.806,311.19899999999996z" style="fill: rgb(33, 67, 128); fill-opacity: 0.5;"></path></g></g><g clip-path="url(#XyVSVofXsg)" transform="matrix(0.53,0,0,0.53,277.10074000000003,68.12078000000004)" opacity="1" style="-webkit-user-select: none;"><g style="-webkit-user-select: none;"><g style="stroke-linecap: butt; stroke-linejoin: miter; fill-opacity: 0; stroke-miterlimit: 4; stroke: rgb(255, 255, 255); stroke-opacity: 1; stroke-width: 29;"><path d=" M174.61700000000002,299.826 C174.61700000000002,299.826 174.441,204.94400000000002 174.441,204.94400000000002 C174.441,173.87800000000001 199.685,148.60800000000003 230.43800000000002,148.60800000000003 C261.19100000000003,148.60800000000003 286.44100000000003,173.87800000000001 286.44100000000003,204.94400000000002 C286.44100000000003,204.94400000000002 286.5,246.32600000000002 286.5,246.32600000000002"></path></g></g></g><g transform="matrix(0.53,0,0,0.53,463.5823000000001,259.45608000000004)" style="-webkit-user-select: none;"><path d=" M0.25,106.962 C0.25,48.027 48.027,0.25 106.962,0.25 C165.897,0.25 213.674,48.027 213.674,106.962 C213.674,165.897 165.897,213.674 106.962,213.674 C48.027,213.674 0.25,165.897 0.25,106.962z" style="fill: rgb(151, 221, 211); fill-opacity: 1;"></path></g><g clip-path="url(#Ar69Cfu4Z4)" transform="matrix(0.5292736534199242,0.027738056808760233,-0.027738056808760233,0.5292736534199242,467.8889633620185,256.5999014935664)" opacity="1" style="-webkit-user-select: none;"><g style="-webkit-user-select: none;"><path d=" M148.49,285.553 C148.49,285.553 67.764,285.553 67.764,285.553 C67.764,285.553 67.764,181.56699999999998 67.764,181.56699999999998 C67.764,181.56699999999998 148.49,181.56699999999998 148.49,181.56699999999998 C148.49,181.56699999999998 148.49,285.553 148.49,285.553z" style="fill: rgb(83, 191, 179); fill-opacity: 1;"></path><path d=" M148.392,294.587 C148.392,294.587 126.98599999999999,277.538 126.98599999999999,277.538 C126.98599999999999,277.538 159.88299999999998,236.239 159.88299999999998,236.239 C148.817,220.304 135.803,201.591 133.154,197.855 C127.077,191.578 120.423,188.393 112.86,188.148 C101.03999999999999,187.81799999999998 89.392,194.615 82.43199999999999,201.148 C72.131,210.821 55.724999999999994,228.153 46.38799999999999,238.142 C46.38799999999999,238.142 67.368,271.41499999999996 67.368,271.41499999999996 C67.368,271.41499999999996 44.221,286.01099999999997 44.221,286.01099999999997 C44.221,286.01099999999997 17.625,243.836 17.625,243.836 C14.329999999999998,238.608 14.943999999999988,231.817 19.13199999999999,227.27100000000002 C20.304999999999993,225.997 47.99699999999999,195.94299999999998 63.70499999999999,181.198 C77.89999999999999,167.87 96.60399999999998,160.249 113.74199999999999,160.799 C128.72899999999998,161.283 142.54399999999998,167.832 153.694,179.74099999999999 C154.608,180.72299999999998 154.819,180.951 188.17,228.998 C191.61399999999998,233.962 191.39499999999998,240.598 187.632,245.323 C187.632,245.323 148.392,294.587 148.392,294.587z" style="fill: rgb(83, 191, 179); fill-opacity: 1;"></path><path d=" M98.582,159.22 C90.829,163.78400000000002 92.654,176.55300000000003 92.654,176.55300000000003 C92.654,176.55300000000003 102.507,167.26500000000001 110.803,169.745 C111.02199999999999,169.80900000000003 110.856,154.357 110.856,154.357 C110.856,154.357 101.422,157.54700000000003 98.582,159.22z" style="fill: rgb(45, 116, 129); fill-opacity: 1;"></path><path d=" M123.074,159.22 C130.827,163.78400000000002 129,176.55300000000003 129,176.55300000000003 C129,176.55300000000003 119.148,167.26500000000001 110.852,169.745 C110.63300000000001,169.80900000000003 110.799,154.357 110.799,154.357 C110.799,154.357 120.23100000000001,157.54700000000003 123.074,159.22z" style="fill: rgb(45, 116, 129); fill-opacity: 1;"></path><path d=" M112.24499999999999,285.1 C112.24499999999999,285.1 109.509,285.1 109.509,285.1 C109.509,285.1 109.509,169.285 109.509,169.285 C109.509,169.285 112.24499999999999,169.285 112.24499999999999,169.285 C112.24499999999999,169.285 112.24499999999999,285.1 112.24499999999999,285.1z" style="fill: rgb(45, 116, 129); fill-opacity: 1;"></path><path d=" M138.38400000000001,131 C136.21699999999998,138.012 105.888,141.203 105.888,141.203 C105.888,141.203 130.974,161.048 151.952,140.749 C151.952,140.749 142.373,135.735 150.013,91.15 C159.29399999999998,36.97500000000001 74.355,23.394000000000005 68.432,72.507 C61.974000000000004,126.08200000000001 138.38400000000001,131 138.38400000000001,131z" style="fill: rgb(68, 69, 69); fill-opacity: 1;"></path><path d=" M111.40599999999999,171.678 C111.40599999999999,172.53300000000002 96.633,162.17000000000002 96.633,162.17000000000002 C96.633,162.17000000000002 96.633,121.492 96.633,121.492 C96.633,112.433 103.245,105.08800000000001 111.40599999999999,105.08800000000001 C119.567,105.08800000000001 126.181,112.433 126.181,121.492 C126.181,121.492 126.181,162.17000000000002 126.181,162.17000000000002 C126.181,162.17000000000002 111.791,172.106 111.40599999999999,171.678z" style="fill: rgb(237, 162, 40); fill-opacity: 1;"></path><path d=" M144.59199999999998,117.869 C144.461,131.24099999999999 137.703,142.994 127.462,150.034 C121.008,154.469 113.171,157.035 104.736,156.954 C82.93299999999999,156.74099999999999 65.437,138.89499999999998 65.65,117.09299999999999 C65.65,117.09299999999999 65.652,96.44099999999999 65.652,96.44099999999999 C65.866,74.645 83.709,57.147 105.507,57.361 C127.32,57.574999999999996 144.814,75.42099999999999 144.595,97.222 C144.595,97.222 144.59199999999998,117.869 144.59199999999998,117.869z" style="fill: rgb(241, 177, 59); fill-opacity: 1;"></path><path d=" M79.383,66.863 C79.383,66.863 74.765,85.73599999999999 87.592,99.472 C94.586,106.965 86.743,115.051 82.518,119.712 C80.038,122.449 80.832,125.25999999999999 84.369,125.78399999999999 C89.562,126.553 93.691,127.237 93.691,127.237 C89.13199999999999,132.769 83.669,143.31 88.458,153.343 C83.47,150.792 65.89099999999999,140.197 65.43799999999999,121.02199999999999 C64.80199999999999,94.119 67.062,76.548 79.383,66.863z" style="fill: rgb(237, 161, 41); fill-opacity: 1;"></path><path d=" M94.239,137.221 C90.188,137.221 86.431,135.563 83.664,132.551 C83.282,132.132 83.309,131.483 83.726,131.1 C84.146,130.719 84.793,130.745 85.17699999999999,131.161 C87.55,133.74699999999999 90.77,135.17 94.239,135.17 C97.705,135.17 100.924,133.746 103.30799999999999,131.161 C103.693,130.745 104.342,130.719 104.756,131.101 C105.173,131.486 105.2,132.135 104.816,132.551 C102.042,135.564 98.285,137.221 94.239,137.221z" style="fill: rgb(240, 91, 91); fill-opacity: 1;"></path><path d=" M154.511,113.854 C154.455,119.327 149.966,123.725 144.487,123.672 C139.011,123.619 134.613,119.12899999999999 134.666,113.65599999999999 C134.722,108.178 139.212,103.779 144.685,103.832 C150.164,103.886 154.565,108.36999999999999 154.511,113.854z" style="fill: rgb(241, 177, 59); fill-opacity: 1;"></path><path d=" M65.61,101.583 C65.61,101.583 63.81399999999999,71.311 81.259,76.783 C81.259,76.783 86.048,61.733000000000004 86.048,61.733000000000004 C67.235,48.73500000000001 42.349999999999994,80.71700000000001 65.61,101.583z" style="fill: rgb(68, 69, 69); fill-opacity: 1;"></path><path d=" M81.26,76.782 C104.178,57.626999999999995 134.622,70.969 130.175,93.545 C125.72900000000001,116.12 138.729,122.048 138.729,122.048 C138.729,122.048 133.90800000000002,107.398 144.686,103.833 C152.03500000000003,101.396 139.316,47.663999999999994 111.36000000000001,47.364999999999995 C80.545,47.03399999999999 81.26,76.782 81.26,76.782z" style="fill: rgb(68, 69, 69); fill-opacity: 1;"></path><path d=" M115.15628205399011,99.36463445553916 C114.70633415765256,99.268995077763 114.28896698592006,99.02488517636611 113.97941281406496,98.63909479975322 C113.81319798489946,98.4350785490145 109.66390925354314,93.46477996403598 103.1609825081832,95.12809284635317 C102.0642068480295,95.40613628054005 100.94757656250711,94.74349549892894 100.66736892142795,93.64728216299434 C100.38778501542123,92.54813438425755 101.0516118563239,91.43073386282524 102.14880333985923,91.1507341334369 C111.2654919551582,88.82538583873391 116.94406145789902,95.77795719058221 117.18565063712144,96.07467029862202 C117.89301942966628,96.96008906470598 117.75016274224276,98.25263266817102 116.8647439761588,98.96000146071586 C116.36469976330609,99.35977237660708 115.73632358122526,99.4879260881941 115.15628205399011,99.36463445553916z" style="fill: rgb(68, 68, 69); fill-opacity: 1;"></path><path d=" M74.27022622906128,100.00509013538792 C73.69140636463301,100.227278264106 73.01246031885947,100.18583834460233 72.44378381807527,99.82892793924009 C71.48240060491614,99.22751101442353 71.19518538112936,97.9602701473327 71.79380156466644,96.99996203802219 C76.78797246177413,89.02341221679733 85.70557755646485,90.13763453534342 86.07981564445267,90.18892638166642 C87.20310512089307,90.34150997225936 87.98923801674408,91.37653077884292 87.8362960582016,92.49888667485683 C87.68407083555819,93.62310973172374 86.64424060342,94.40787535809345 85.52705250091026,94.25723424945876 C85.26379868741675,94.2243947963402 78.83855314026441,93.48916309218238 75.27404166766921,99.17952089830821 C75.02730961941234,99.57201076615574 74.67166581245507,99.85099191708343 74.27022622906128,100.00509013538792z" style="fill: rgb(68, 68, 69); fill-opacity: 1;"></path><path d=" M109.524,107.642 C109.524,107.642 109.524,107.642 109.524,107.642 C109.524,107.642 109.524,107.642 109.524,107.642 C109.524,107.642 109.524,107.642 109.524,107.642 C109.524,107.642 109.524,107.642 109.524,107.642z" style="fill: rgb(68, 69, 69); fill-opacity: 1;"></path><path d=" M81.857,107.642 C81.857,107.642 81.857,107.642 81.857,107.642 C81.857,107.642 81.857,107.642 81.857,107.642 C81.857,107.642 81.857,107.642 81.857,107.642 C81.857,107.642 81.857,107.642 81.857,107.642z" style="fill: rgb(68, 69, 69); fill-opacity: 1;"></path><path d=" M115.062,109.815 C114.637,109.815 114.24199999999999,109.54400000000001 114.103,109.117 C113.49,107.232 111.75,105.95100000000001 109.776,105.93 C107.836,105.897 106.046,107.155 105.396,109.03 C105.215,109.558 104.64200000000001,109.839 104.111,109.654 C103.58500000000001,109.47099999999999 103.307,108.897 103.488,108.37 C104.413,105.69500000000001 106.913,103.91 109.726,103.91 C109.75,103.91 109.774,103.91 109.797,103.91 C112.639,103.94 115.141,105.782 116.022,108.494 C116.19300000000001,109.024 115.90400000000001,109.592 115.373,109.765 C115.27000000000001,109.799 115.16499999999999,109.815 115.062,109.815z" style="fill: rgb(68, 68, 69); fill-opacity: 1;"></path><path d=" M87.562,109.815 C87.137,109.815 86.74199999999999,109.54400000000001 86.603,109.117 C85.99,107.232 84.25,105.95100000000001 82.276,105.93 C80.336,105.897 78.546,107.155 77.896,109.03 C77.715,109.558 77.14200000000001,109.839 76.611,109.654 C76.08500000000001,109.47099999999999 75.807,108.897 75.988,108.37 C76.913,105.69500000000001 79.413,103.91 82.226,103.91 C82.25,103.91 82.274,103.91 82.297,103.91 C85.139,103.94 87.641,105.782 88.522,108.494 C88.69300000000001,109.024 88.40400000000001,109.592 87.873,109.765 C87.77000000000001,109.799 87.66499999999999,109.815 87.562,109.815z" style="fill: rgb(68, 68, 69); fill-opacity: 1;"></path></g></g><g transform="matrix(1.0335,0,0,1.0335,284.9863450000001,76.21891500000004)" style="-webkit-user-select: none;"><path d=" M282.336,232.15 C282.336,201.954 257.86,177.474 227.664,177.46800000000002 C227.664,177.46800000000002 227.664,177.467 227.664,177.467 C227.66299999999998,177.467 227.661,177.46800000000002 227.659,177.46800000000002 C227.65699999999998,177.46800000000002 227.655,177.467 227.653,177.467 C227.653,177.467 227.653,177.46800000000002 227.653,177.46800000000002 C197.458,177.474 172.982,201.954 172.982,232.15 C172.982,262.347 197.458,286.827 227.653,286.833 C227.655,286.833 227.65699999999998,286.833 227.659,286.833 C227.661,286.833 227.66299999999998,286.833 227.664,286.833 C257.86,286.827 282.336,262.347 282.336,232.15z" style="fill: rgb(189, 189, 189); fill-opacity: 1;"></path><path d=" M276.429,232.15 C276.429,205.216 254.59799999999998,183.382 227.665,183.376 C227.665,183.376 227.659,183.376 227.659,183.376 C227.659,183.376 227.654,183.376 227.654,183.376 C200.721,183.382 178.88899999999998,205.216 178.88899999999998,232.15 C178.88899999999998,259.084 200.721,280.92 227.654,280.926 C227.654,280.926 227.654,280.926 227.654,280.926 C227.655,280.926 227.65699999999998,280.926 227.659,280.926 C227.661,280.926 227.66299999999998,280.926 227.665,280.926 C227.665,280.926 227.665,280.926 227.665,280.926 C254.59799999999998,280.92 276.429,259.084 276.429,232.15z" style="fill: rgb(224, 224, 224); fill-opacity: 1;"></path><path d=" M261.365,232.711 C261.365,214.097 246.277,199.007 227.664,199.001 C227.664,199.001 227.664,199 227.664,199 C227.664,199 227.659,199 227.659,199 C227.659,199 227.653,199 227.653,199 C227.653,199 227.653,199.001 227.653,199.001 C209.04,199.007 193.95299999999997,214.097 193.95299999999997,232.711 C193.95299999999997,251.32600000000002 209.04,266.416 227.653,266.422 C227.655,266.422 227.65699999999998,266.422 227.659,266.422 C227.661,266.422 227.66199999999998,266.422 227.664,266.422 C246.277,266.416 261.365,251.32600000000002 261.365,232.711z" style="fill: rgb(189, 189, 189); fill-opacity: 1;"></path><path d=" M227.685,216.858 C227.685,216.858 227.685,216.858 227.685,216.858 C227.685,216.858 214.988,220.488 214.988,220.488 C214.988,220.488 214.988,227.085 214.988,227.085 C214.988,229.13400000000001 214.948,231.17100000000002 215.293,233.199 C215.687,235.51600000000002 216.476,237.749 217.562,239.83100000000002 C219.785,244.094 223.29000000000002,247.536 227.67600000000002,249.526 C227.679,249.525 227.68200000000002,249.523 227.685,249.522 C232.068,247.532 235.57,244.092 237.792,239.83100000000002 C238.87800000000001,237.749 239.673,235.51600000000002 240.068,233.199 C240.412,231.17100000000002 240.382,229.13400000000001 240.382,227.085 C240.382,227.085 240.382,220.488 240.382,220.488 C240.382,220.488 227.685,216.858 227.685,216.858z" style="fill: rgb(224, 224, 224); fill-opacity: 1;"></path><path d=" M260.648,259.73699999999997 C260.14300000000003,259.315 259.857,258.73299999999995 259.791,258.147 C259.738,257.56899999999996 259.882,256.96999999999997 260.223,256.448 C260.93,255.43699999999998 262.403,255.19899999999998 263.509,255.91499999999996 C264.615,256.63 264.858,258.14399999999995 264.048,259.294 C263.663,259.87699999999995 263.054,260.203 262.415,260.265 C261.787,260.33599999999996 261.153,260.15999999999997 260.648,259.73699999999997z" style="fill: rgb(189, 189, 189); fill-opacity: 1;"></path><path d=" M238.197,273.913 C237.887,272.633 238.594,271.311 239.77700000000002,270.967 C240.976,270.66499999999996 242.27,271.23199999999997 242.749,272.469 C243.221,273.688 242.568,275.163 241.204,275.518 C239.854,275.914 238.507,275.193 238.197,273.913z" style="fill: rgb(189, 189, 189); fill-opacity: 1;"></path><path d=" M209.991,272.375 C209.681,271.09499999999997 210.388,269.77299999999997 211.57100000000003,269.429 C212.77,269.12699999999995 214.06400000000002,269.69399999999996 214.543,270.931 C215.01500000000001,272.15 214.36200000000002,273.625 212.99800000000002,273.97999999999996 C211.64800000000002,274.376 210.30100000000002,273.655 209.991,272.375z" style="fill: rgb(189, 189, 189); fill-opacity: 1;"></path><path d=" M243.612,192.347 C243.364,192.965 242.909,193.39000000000001 242.365,193.656 C241.816,193.93 241.191,194.007 240.6,193.812 C239.43,193.427 238.754,192.077 239.09,190.804 C239.42600000000002,189.531 240.78300000000002,188.852 242.12,189.291 C242.782,189.51 243.294,189.959 243.566,190.50300000000001 C243.837,191.057 243.854,191.743 243.612,192.347z" style="fill: rgb(189, 189, 189); fill-opacity: 1;"></path><path d=" M263.99300000000005,209.36599999999999 C262.872,210.058 261.418,209.78 260.749,208.744 C260.014,207.754 260.194,206.315 261.22400000000005,205.47799999999998 C262.237,204.652 263.80100000000004,204.85 264.63500000000005,205.98 C265.403,207.15699999999998 265.11400000000003,208.67499999999998 263.99300000000005,209.36599999999999z" style="fill: rgb(189, 189, 189); fill-opacity: 1;"></path><path d=" M270.546,235.09799999999998 C269.233,234.998 268.18,233.917 268.199,232.683 C268.228,231.44799999999998 269.302,230.391 270.584,230.322 C271.932,230.25 272.999,231.32999999999998 272.968,232.736 C272.946,234.141 271.859,235.19799999999998 270.546,235.09799999999998z" style="fill: rgb(189, 189, 189); fill-opacity: 1;"></path><path d=" M191.32600000000002,255.13400000000001 C192.447,254.443 193.901,254.721 194.57000000000002,255.757 C195.305,256.747 195.125,258.185 194.09500000000003,259.022 C193.08200000000002,259.848 191.518,259.651 190.68400000000003,258.521 C189.91600000000003,257.344 190.205,255.82500000000002 191.32600000000002,255.13400000000001z" style="fill: rgb(189, 189, 189); fill-opacity: 1;"></path><path d=" M184.77300000000002,229.402 C186.086,229.50199999999998 187.139,230.58399999999997 187.12,231.81799999999998 C187.091,233.053 186.01600000000002,234.10999999999999 184.734,234.17899999999997 C183.38600000000002,234.25099999999998 182.31900000000002,233.171 182.35000000000002,231.765 C182.372,230.35999999999999 183.46,229.302 184.77300000000002,229.402z" style="fill: rgb(189, 189, 189); fill-opacity: 1;"></path><path d=" M194.67000000000002,204.763 C195.175,205.185 195.461,205.768 195.52700000000002,206.354 C195.58,206.93200000000002 195.436,207.532 195.095,208.054 C194.388,209.065 192.91500000000002,209.302 191.809,208.586 C190.703,207.871 190.46,206.357 191.27,205.207 C191.655,204.624 192.264,204.298 192.90300000000002,204.236 C193.531,204.165 194.16500000000002,204.34 194.67000000000002,204.763z" style="fill: rgb(189, 189, 189); fill-opacity: 1;"></path><path d=" M217.121,190.588 C217.431,191.868 216.72400000000002,193.191 215.541,193.535 C214.342,193.837 213.048,193.26899999999998 212.56900000000002,192.03199999999998 C212.097,190.813 212.75,189.338 214.114,188.98299999999998 C215.465,188.587 216.811,189.308 217.121,190.588z" style="fill: rgb(189, 189, 189); fill-opacity: 1;"></path></g></g></g></svg>