<?xml version="1.0" encoding="utf-8"?>
<!-- Generator: Adobe Illustrator 19.2.0, SVG Export Plug-In . SVG Version: 6.00 Build 0)  -->
<svg version="1.1" id="Layer_1" xmlns="http://www.w3.org/2000/svg" xmlns:xlink="http://www.w3.org/1999/xlink" x="0px" y="0px"
	 viewBox="0 0 135.3 38.1" style="enable-background:new 0 0 135.3 38.1;" xml:space="preserve">
<g>
	<g>
		<path style="fill:#1E1E1C;" d="M31.9,0.8H37v7.4l6.3-7.4h6l-6.9,7.9l7.2,10.5h-6.1l-4.6-6.8l-1.9,2v4.8h-5.1V0.8z"/>
		<path style="fill:#1E1E1C;" d="M55.3,0.8H60l7.5,9.7V0.8h5.1v18.3h-4.4L60.3,9.1v10.1h-5V0.8z"/>
		<path style="fill:#1E1E1C;" d="M74.9,0.8H80v18.3h-5.1V0.8z"/>
		<path style="fill:#1E1E1C;" d="M81.7,10L81.7,10c0-5.4,4.2-9.6,9.8-9.6c3.2,0,5.5,1,7.4,2.6l-3,3.6C94.7,5.6,93.4,5,91.6,5
			c-2.6,0-4.7,2.2-4.7,5V10c0,3,2.1,5.1,5,5.1c1.3,0,2.2-0.3,2.9-0.8v-2.2h-3.6V8.4h8.4v8.2c-1.9,1.6-4.6,2.9-8,2.9
			C86,19.5,81.7,15.6,81.7,10z"/>
		<path style="fill:#1E1E1C;" d="M101.4,0.8h5.1v6.9h6.5V0.8h5.1v18.3H113v-7h-6.5v7h-5.1V0.8z"/>
		<path style="fill:#1E1E1C;" d="M124.8,5.3h-5.5V0.8h16.1v4.5h-5.5v13.9h-5.1V5.3z"/>
		<circle style="fill:#1E1E1C;" cx="49.9" cy="9.4" r="2.5"/>
	</g>
	<g>
		<g>
			<path style="fill:#1E1E1C;" d="M34.5,35.1V36h-1.9v-9.3h1.9v3.4c0.5-0.6,1.1-1.1,2.1-1.1c1.6,0,3.1,1.2,3.1,3.5v0
				c0,2.3-1.5,3.5-3.1,3.5C35.6,36.1,35,35.7,34.5,35.1z M37.8,32.6L37.8,32.6c0-1.2-0.8-1.9-1.7-1.9c-0.9,0-1.6,0.7-1.6,1.9v0
				c0,1.1,0.7,1.9,1.6,1.9C37.1,34.5,37.8,33.8,37.8,32.6z"/>
			<path style="fill:#1E1E1C;" d="M44.3,29.2h2l-2.6,7c-0.5,1.4-1.1,1.9-2.2,1.9c-0.7,0-1.2-0.2-1.7-0.5l0.6-1.4
				c0.3,0.2,0.6,0.3,0.8,0.3c0.3,0,0.5-0.1,0.7-0.4l-2.7-6.8h2l1.5,4.6L44.3,29.2z"/>
		</g>
		<g>
			<g id="XMLID_3_">
				<g>
					<path id="XMLID_232_" style="fill:#1E1E1C;" d="M48.9,27.1h2V31l3.6-3.9h2.4l-3.6,3.8l3.8,5.1h-2.4l-2.8-3.8l-1,1.1l0,2.7h-2
						L48.9,27.1z"/>
					<path id="XMLID_229_" style="fill:#1E1E1C;" d="M56,32.7L56,32.7c0-2,1.6-3.6,3.7-3.6c2.1,0,3.7,1.6,3.7,3.5v0
						c0,2-1.6,3.6-3.7,3.6C57.6,36.2,56,34.7,56,32.7z M61.5,32.7L61.5,32.7c0-1-0.7-1.9-1.8-1.9c-1.1,0-1.8,0.9-1.8,1.9v0
						c0,1,0.7,1.9,1.8,1.9C60.8,34.6,61.5,33.7,61.5,32.7z"/>
					<path id="XMLID_227_" style="fill:#1E1E1C;" d="M63.9,34.1v-3.2h-0.8v-1.7h0.8l0-1.7h1.9v1.7h1.6v1.7h-1.6v2.9
						c0,0.4,0.2,0.7,0.6,0.7c0.4,0,0.7-0.1,1-0.2v1.6c-0.4,0.2-0.9,0.4-1.5,0.4C64.7,36.2,63.9,35.7,63.9,34.1z"/>
					<path id="XMLID_225_" style="fill:#1E1E1C;" d="M68,26.8H70v9.3H68V26.8z"/>
					<path id="XMLID_222_" style="fill:#1E1E1C;" d="M70.7,26.8l2,0v1.7h-2V26.8z M70.7,29.2h1.9l0,6.8h-1.9L70.7,29.2z"/>
					<path id="XMLID_220_" style="fill:#1E1E1C;" d="M73.4,29.2h1.9v1c0.4-0.6,1-1.1,2-1.1c1.5,0,2.3,1,2.3,2.5v4.4h-1.9l0-3.8
						c0-0.9-0.4-1.4-1.2-1.4c-0.7,0-1.2,0.5-1.2,1.4v3.8h-1.9V29.2z"/>
				</g>
			</g>
		</g>
	</g>
	<path style="fill:#1E1E1C;" d="M22.7,0v20.6L11.2,31.9L0,20.6V0H22.7z M16.7,17.2l-5.3-5.3l5.3-5.3H6v10.6L16.7,17.2z"/>
</g>
</svg>
