<?xml version="1.0" encoding="utf-8"?>
<!-- Generator: Adobe Illustrator 19.2.0, SVG Export Plug-In . SVG Version: 6.00 Build 0)  -->
<svg version="1.1" id="Layer_1" xmlns="http://www.w3.org/2000/svg" xmlns:xlink="http://www.w3.org/1999/xlink" x="0px" y="0px"
	 viewBox="0 0 118.9 178.4" style="enable-background:new 0 0 118.9 178.4;" xml:space="preserve">
<g>
	<path style="fill:#FFFFFF;" d="M118.9,0v119.4l-60.2,58.9L0,119.4V0H118.9z M15.6,76.8H20l0-6.1l2.3-2.4l6.2,8.4h5.2l-8.4-11.4
		l8.1-8.4H28L20,65.6l0-8.7h-4.4L15.6,76.8z M39.5,77.1c4.7,0,8.3-3.5,8.3-7.9v-0.1c0-4.4-3.5-7.9-8.2-7.9c-4.7,0-8.3,3.5-8.3,7.9
		v0.1C31.4,73.6,34.8,77.1,39.5,77.1z M39.6,73.4c-2.4,0-4-2-4-4.2v-0.1c0-2.2,1.5-4.1,3.9-4.1c2.4,0,4,2,4,4.2v0.1
		C43.5,71.5,42.1,73.4,39.6,73.4z M53.4,77c1.4,0,2.5-0.3,3.4-0.9l0-3.5c-0.6,0.3-1.3,0.5-2.1,0.5c-1,0-1.4-0.5-1.4-1.5l0-6.5h3.6
		v-3.7h-3.6l0-3.9H49v3.9h-1.8l0,3.7H49v7.2C49,76,50.8,77,53.4,77z M58.1,76.8h4.3l0-20.7h-4.3L58.1,76.8z M64,59.9h4.5v-3.8H64
		L64,59.9z M64.1,76.8l4.3,0l0-15.2h-4.3L64.1,76.8z M70,76.8h4.3l0-8.5c0-2,1-3.1,2.7-3.1c1.6,0,2.6,1,2.6,3.1v8.5H84l0-9.8
		c0-3.5-1.9-5.6-5.2-5.6c-2.2,0-3.5,1.2-4.5,2.4v-2.2l-4.3,0L70,76.8z M15.6,102.7h4.3V90.1l9.6,12.6h3.7V82.9h-4.3v12.2l-9.3-12.2
		h-4V102.7z M35.4,85.9h4.5V82h-4.5V85.9z M35.5,102.7h4.3V87.5h-4.3V102.7z M48.4,107.3c2.9,0,5.1-0.6,6.6-2c1.3-1.3,1.9-3.3,1.9-6
		V87.5h-4.3v2c-1.2-1.3-2.6-2.3-4.9-2.3c-3.5,0-6.8,2.6-6.8,7.1v0.1c0,4.5,3.2,7.1,6.8,7.1c2.3,0,3.7-0.9,5-2.5v0.7
		c0,2.7-1.4,4.1-4.3,4.1c-2,0-3.6-0.5-5.1-1.4l-1.5,3.2C43.6,106.8,45.9,107.3,48.4,107.3z M48.9,97.9c-2.1,0-3.7-1.4-3.7-3.5v-0.1
		c0-2.1,1.6-3.5,3.7-3.5c2.1,0,3.7,1.4,3.7,3.5v0.1C52.6,96.5,51,97.9,48.9,97.9z M58.5,102.7h4.3v-8.5c0-2,1-3.1,2.7-3.1
		c1.6,0,2.6,1,2.6,3.1v8.5h4.3v-9.8c0-3.5-1.9-5.6-5.2-5.6c-2.2,0-3.5,1.2-4.5,2.4V82h-4.3V102.7z M79,103c1.4,0,2.5-0.3,3.4-0.9
		v-3.5c-0.6,0.3-1.3,0.5-2.1,0.5c-1,0-1.4-0.5-1.4-1.5v-6.5h3.6v-3.7h-3.6v-3.9h-4.3v3.9h-1.8v3.7h1.8v7.2C74.6,102,76.4,103,79,103
		z M29.5,28.7l13.8-13.8H15.6v27.7h27.7L29.5,28.7L29.5,28.7z"/>
</g>
</svg>
