<?xml version="1.0" encoding="utf-8"?>
<!-- Generator: Adobe Illustrator 19.2.0, SVG Export Plug-In . SVG Version: 6.00 Build 0)  -->
<svg version="1.1" id="Layer_1" xmlns="http://www.w3.org/2000/svg" xmlns:xlink="http://www.w3.org/1999/xlink" x="0px" y="0px"
	 viewBox="0 0 118.9 178.4" style="enable-background:new 0 0 118.9 178.4;" xml:space="preserve">
<linearGradient id="SVGID_1_" gradientUnits="userSpaceOnUse" x1="119.4921" y1="-0.3037" x2="31.1139" y2="88.0745">
	<stop  offset="0.2957" style="stop-color:#45A6DE"/>
	<stop  offset="0.6936" style="stop-color:#5878BA"/>
	<stop  offset="1" style="stop-color:#6F5FA6"/>
</linearGradient>
<polygon style="fill:url(#SVGID_1_);" points="0,0 0,119.4 58.7,178.4 118.9,119.4 118.9,0 "/>
<g id="XMLID_442_">
	<g>
		<path id="XMLID_287_" style="fill:#FFFFFF;" d="M15.6,56.9H20l0,8.7l8.1-8.7h5.3l-8.1,8.4l8.4,11.4h-5.2l-6.2-8.4L20,70.7l0,6.1
			h-4.4L15.6,56.9z"/>
		<path id="XMLID_284_" style="fill:#FFFFFF;" d="M31.4,69.3L31.4,69.3c0-4.4,3.5-8,8.3-8c4.7,0,8.2,3.5,8.2,7.9v0.1
			c0,4.4-3.5,7.9-8.3,7.9C34.8,77.1,31.4,73.6,31.4,69.3z M43.5,69.3L43.5,69.3c0-2.3-1.6-4.3-4-4.3c-2.5,0-3.9,1.9-3.9,4.1v0.1
			c0,2.2,1.6,4.2,4,4.2C42.1,73.4,43.5,71.5,43.5,69.3z"/>
		<path id="XMLID_282_" style="fill:#FFFFFF;" d="M49,72.5v-7.2h-1.8l0-3.7H49v-3.9h4.3l0,3.9h3.6v3.7h-3.6l0,6.5
			c0,1,0.4,1.5,1.4,1.5c0.8,0,1.5-0.2,2.1-0.5l0,3.5c-0.9,0.5-2,0.9-3.4,0.9C50.8,77,49,76,49,72.5z"/>
		<path id="XMLID_279_" style="fill:#FFFFFF;" d="M58.1,56.1h4.3l0,20.7h-4.3L58.1,56.1z"/>
		<path id="XMLID_276_" style="fill:#FFFFFF;" d="M64,56.1h4.5v3.8H64L64,56.1z M64.1,61.6h4.3l0,15.2l-4.3,0L64.1,61.6z"/>
		<path id="XMLID_274_" style="fill:#FFFFFF;" d="M70,61.6l4.3,0v2.2c1-1.3,2.3-2.4,4.5-2.4c3.3,0,5.2,2.2,5.2,5.6l0,9.8h-4.3v-8.5
			c0-2-1-3.1-2.6-3.1c-1.6,0-2.7,1-2.7,3.1l0,8.5H70L70,61.6z"/>
	</g>
</g>
<g>
	<path style="fill:#FFFFFF;" d="M15.6,82.9h4l9.3,12.2V82.9h4.3v19.9h-3.7l-9.6-12.6v12.6h-4.3V82.9z"/>
	<path style="fill:#FFFFFF;" d="M35.4,82h4.5v3.8h-4.5V82z M35.5,87.5h4.3v15.2h-4.3V87.5z"/>
	<path style="fill:#FFFFFF;" d="M41.7,105.8l1.5-3.2c1.6,0.9,3.1,1.4,5.1,1.4c3,0,4.3-1.4,4.3-4.1V99c-1.3,1.5-2.7,2.5-5,2.5
		c-3.5,0-6.8-2.6-6.8-7.1v-0.1c0-4.5,3.3-7.1,6.8-7.1c2.4,0,3.7,1,4.9,2.3v-2h4.3v11.8c0,2.7-0.7,4.7-1.9,6c-1.4,1.4-3.6,2-6.6,2
		C45.9,107.3,43.6,106.8,41.7,105.8z M52.6,94.4L52.6,94.4c0-2.1-1.6-3.6-3.7-3.6c-2.1,0-3.7,1.4-3.7,3.5v0.1c0,2.1,1.6,3.5,3.7,3.5
		C51,97.9,52.6,96.5,52.6,94.4z"/>
	<path style="fill:#FFFFFF;" d="M58.5,82h4.3v7.7c1-1.3,2.3-2.4,4.5-2.4c3.3,0,5.2,2.2,5.2,5.6v9.8h-4.3v-8.5c0-2-1-3.1-2.6-3.1
		c-1.6,0-2.7,1-2.7,3.1v8.5h-4.3V82z"/>
	<path style="fill:#FFFFFF;" d="M74.6,98.4v-7.2h-1.8v-3.7h1.8v-3.9h4.3v3.9h3.6v3.7h-3.6v6.5c0,1,0.4,1.5,1.4,1.5
		c0.8,0,1.5-0.2,2.1-0.5v3.5c-0.9,0.5-2,0.9-3.4,0.9C76.4,103,74.6,102,74.6,98.4z"/>
</g>
<polygon style="fill:#FFFFFF;" points="29.5,28.7 43.3,14.9 15.6,14.9 15.6,42.6 43.3,42.6 29.5,28.8 "/>
</svg>
